<mxfile host="app.diagrams.net" modified="2021-07-08T09:40:33.423Z" agent="5.0 (Windows NT 10.0; WOW64) AppleWebKit/537.36 (KHTML, like Gecko) Chrome/72.0.3626.121 Safari/537.36" etag="fDHb9ghq-OdbY17tYlz0" version="14.8.5" type="github">
  <diagram id="C5RBs43oDa-KdzZeNtuy" name="Page-1">
    <mxGraphModel dx="2062" dy="1122" grid="1" gridSize="10" guides="1" tooltips="1" connect="1" arrows="1" fold="1" page="1" pageScale="1" pageWidth="1654" pageHeight="2336" math="0" shadow="0">
      <root>
        <mxCell id="WIyWlLk6GJQsqaUBKTNV-0" />
        <mxCell id="WIyWlLk6GJQsqaUBKTNV-1" parent="WIyWlLk6GJQsqaUBKTNV-0" />
        <mxCell id="eg39BYURoG-ioiu6Ku_S-9" value="" style="group" parent="WIyWlLk6GJQsqaUBKTNV-1" vertex="1" connectable="0">
          <mxGeometry x="50" y="40" width="460" height="90" as="geometry" />
        </mxCell>
        <mxCell id="eg39BYURoG-ioiu6Ku_S-1" value="" style="rounded=0;whiteSpace=wrap;html=1;fillColor=#ffe6cc;strokeColor=#d79b00;opacity=20;strokeWidth=1;" parent="eg39BYURoG-ioiu6Ku_S-9" vertex="1">
          <mxGeometry width="460" height="90" as="geometry" />
        </mxCell>
        <mxCell id="eg39BYURoG-ioiu6Ku_S-7" value="检查链接" style="text;html=1;strokeColor=none;fillColor=none;align=center;verticalAlign=middle;whiteSpace=wrap;rounded=0;opacity=20;fontSize=16;" parent="eg39BYURoG-ioiu6Ku_S-9" vertex="1">
          <mxGeometry x="380" y="70" width="80" height="20" as="geometry" />
        </mxCell>
        <mxCell id="eg39BYURoG-ioiu6Ku_S-3" value="关闭链接" style="rounded=0;whiteSpace=wrap;html=1;" parent="eg39BYURoG-ioiu6Ku_S-9" vertex="1">
          <mxGeometry x="150" y="25" width="80" height="40" as="geometry" />
        </mxCell>
        <mxCell id="eg39BYURoG-ioiu6Ku_S-5" value="设置Schema" style="rounded=0;whiteSpace=wrap;html=1;" parent="eg39BYURoG-ioiu6Ku_S-9" vertex="1">
          <mxGeometry x="270" y="25" width="80" height="40" as="geometry" />
        </mxCell>
        <mxCell id="eg39BYURoG-ioiu6Ku_S-0" value="打开链接" style="rounded=0;whiteSpace=wrap;html=1;" parent="eg39BYURoG-ioiu6Ku_S-9" vertex="1">
          <mxGeometry x="30" y="25" width="80" height="40" as="geometry" />
        </mxCell>
        <mxCell id="eg39BYURoG-ioiu6Ku_S-6" value="" style="edgeStyle=orthogonalEdgeStyle;rounded=0;orthogonalLoop=1;jettySize=auto;html=1;" parent="eg39BYURoG-ioiu6Ku_S-9" source="eg39BYURoG-ioiu6Ku_S-3" target="eg39BYURoG-ioiu6Ku_S-5" edge="1">
          <mxGeometry relative="1" as="geometry" />
        </mxCell>
        <mxCell id="eg39BYURoG-ioiu6Ku_S-4" value="" style="edgeStyle=orthogonalEdgeStyle;rounded=0;orthogonalLoop=1;jettySize=auto;html=1;" parent="eg39BYURoG-ioiu6Ku_S-9" source="eg39BYURoG-ioiu6Ku_S-0" target="eg39BYURoG-ioiu6Ku_S-3" edge="1">
          <mxGeometry relative="1" as="geometry" />
        </mxCell>
        <mxCell id="eg39BYURoG-ioiu6Ku_S-18" value="" style="group" parent="WIyWlLk6GJQsqaUBKTNV-1" vertex="1" connectable="0">
          <mxGeometry x="50" y="180" width="570" height="100" as="geometry" />
        </mxCell>
        <mxCell id="eg39BYURoG-ioiu6Ku_S-11" value="" style="rounded=0;whiteSpace=wrap;html=1;fontSize=16;strokeWidth=1;opacity=20;fillColor=#ffe6cc;strokeColor=#d79b00;" parent="eg39BYURoG-ioiu6Ku_S-18" vertex="1">
          <mxGeometry width="570" height="100" as="geometry" />
        </mxCell>
        <mxCell id="eg39BYURoG-ioiu6Ku_S-12" value="读取OLAP变动类型数据" style="rounded=0;whiteSpace=wrap;html=1;" parent="eg39BYURoG-ioiu6Ku_S-18" vertex="1">
          <mxGeometry x="20" y="20" width="80" height="40" as="geometry" />
        </mxCell>
        <mxCell id="eg39BYURoG-ioiu6Ku_S-13" value="过滤Type为TransactionTypeCategory和TransactionTypeGroup的数据" style="rounded=0;whiteSpace=wrap;html=1;" parent="eg39BYURoG-ioiu6Ku_S-18" vertex="1">
          <mxGeometry x="115" y="20" width="230" height="40" as="geometry" />
        </mxCell>
        <mxCell id="eg39BYURoG-ioiu6Ku_S-15" value="存储至TransactionTypeOIDNameMap" style="rounded=0;whiteSpace=wrap;html=1;" parent="eg39BYURoG-ioiu6Ku_S-18" vertex="1">
          <mxGeometry x="370" y="20" width="170" height="40" as="geometry" />
        </mxCell>
        <mxCell id="eg39BYURoG-ioiu6Ku_S-17" value="读取OLAP变动类型数据" style="text;html=1;strokeColor=none;fillColor=none;align=center;verticalAlign=middle;whiteSpace=wrap;rounded=0;fontSize=16;opacity=20;" parent="eg39BYURoG-ioiu6Ku_S-18" vertex="1">
          <mxGeometry x="380" y="80" width="190" height="20" as="geometry" />
        </mxCell>
        <mxCell id="eg39BYURoG-ioiu6Ku_S-14" value="" style="edgeStyle=orthogonalEdgeStyle;rounded=0;orthogonalLoop=1;jettySize=auto;html=1;fontSize=16;" parent="eg39BYURoG-ioiu6Ku_S-18" source="eg39BYURoG-ioiu6Ku_S-12" target="eg39BYURoG-ioiu6Ku_S-13" edge="1">
          <mxGeometry relative="1" as="geometry" />
        </mxCell>
        <mxCell id="eg39BYURoG-ioiu6Ku_S-16" value="" style="edgeStyle=orthogonalEdgeStyle;rounded=0;orthogonalLoop=1;jettySize=auto;html=1;fontSize=16;" parent="eg39BYURoG-ioiu6Ku_S-18" source="eg39BYURoG-ioiu6Ku_S-13" target="eg39BYURoG-ioiu6Ku_S-15" edge="1">
          <mxGeometry relative="1" as="geometry" />
        </mxCell>
        <mxCell id="eg39BYURoG-ioiu6Ku_S-19" value="" style="group" parent="WIyWlLk6GJQsqaUBKTNV-1" vertex="1" connectable="0">
          <mxGeometry x="40" y="300" width="770" height="590" as="geometry" />
        </mxCell>
        <mxCell id="eg39BYURoG-ioiu6Ku_S-20" value="" style="rounded=0;whiteSpace=wrap;html=1;fontSize=16;strokeWidth=1;opacity=20;fillColor=#ffe6cc;strokeColor=#d79b00;" parent="eg39BYURoG-ioiu6Ku_S-19" vertex="1">
          <mxGeometry width="770" height="590" as="geometry" />
        </mxCell>
        <mxCell id="eg39BYURoG-ioiu6Ku_S-21" value="读取Table" style="rounded=0;whiteSpace=wrap;html=1;" parent="eg39BYURoG-ioiu6Ku_S-19" vertex="1">
          <mxGeometry x="20" y="20" width="80" height="40" as="geometry" />
        </mxCell>
        <mxCell id="eg39BYURoG-ioiu6Ku_S-22" value="过滤Type为TransactionTypeCategory和TransactionTypeGroup的数据" style="rounded=0;whiteSpace=wrap;html=1;" parent="eg39BYURoG-ioiu6Ku_S-19" vertex="1">
          <mxGeometry x="115" y="20" width="230" height="40" as="geometry" />
        </mxCell>
        <mxCell id="eg39BYURoG-ioiu6Ku_S-23" value="存储至TransactionTypeOIDNameMap" style="rounded=0;whiteSpace=wrap;html=1;" parent="eg39BYURoG-ioiu6Ku_S-19" vertex="1">
          <mxGeometry x="370" y="20" width="170" height="40" as="geometry" />
        </mxCell>
        <mxCell id="eg39BYURoG-ioiu6Ku_S-24" value="读取《变动类型规则配置》数据" style="text;html=1;strokeColor=none;fillColor=none;align=center;verticalAlign=middle;whiteSpace=wrap;rounded=0;fontSize=16;opacity=20;" parent="eg39BYURoG-ioiu6Ku_S-19" vertex="1">
          <mxGeometry x="530" y="570" width="240" height="20" as="geometry" />
        </mxCell>
        <mxCell id="eg39BYURoG-ioiu6Ku_S-25" value="" style="edgeStyle=orthogonalEdgeStyle;rounded=0;orthogonalLoop=1;jettySize=auto;html=1;fontSize=16;" parent="eg39BYURoG-ioiu6Ku_S-19" source="eg39BYURoG-ioiu6Ku_S-21" target="eg39BYURoG-ioiu6Ku_S-22" edge="1">
          <mxGeometry relative="1" as="geometry" />
        </mxCell>
        <mxCell id="eg39BYURoG-ioiu6Ku_S-26" value="" style="edgeStyle=orthogonalEdgeStyle;rounded=0;orthogonalLoop=1;jettySize=auto;html=1;fontSize=16;" parent="eg39BYURoG-ioiu6Ku_S-19" source="eg39BYURoG-ioiu6Ku_S-22" target="eg39BYURoG-ioiu6Ku_S-23" edge="1">
          <mxGeometry relative="1" as="geometry" />
        </mxCell>
      </root>
    </mxGraphModel>
  </diagram>
</mxfile>
